<?xml version="1.0" encoding="utf-8"?>
<!-- Generator: Adobe Illustrator 26.3.1, SVG Export Plug-In . SVG Version: 6.00 Build 0)  -->
<svg version="1.1" id="Laag_1" xmlns="http://www.w3.org/2000/svg" xmlns:xlink="http://www.w3.org/1999/xlink" x="0px" y="0px"
	 viewBox="0 0 174.33 199.53" style="enable-background:new 0 0 174.33 199.53;" xml:space="preserve">
<style type="text/css">
	.st0{fill:#FFFFFF;}
</style>
<polygon class="st0" points="61.71,92.28 61.45,87.45 56.8,86.2 61.29,84.49 61.05,79.65 64.06,83.38 68.56,81.64 65.94,85.7 
	68.99,89.46 64.33,88.21 "/>
<polygon class="st0" points="50.2,99.6 48.7,95.01 43.88,95.01 47.77,92.19 46.28,87.58 50.16,90.39 54.05,87.55 52.58,92.15 
	56.5,94.99 51.67,94.99 "/>
<polygon class="st0" points="41.01,109.67 38.35,105.63 33.71,106.89 36.73,103.15 34.09,99.09 38.56,100.8 41.57,97.03 
	41.35,101.85 45.88,103.58 41.22,104.84 "/>
<polygon class="st0" points="82.44,87.22 80.49,82.8 84.07,79.58 79.29,80.09 77.32,75.67 76.32,80.35 71.52,80.84 75.69,83.27 
	74.68,88.01 78.27,84.78 "/>
<polygon class="st0" points="96.01,88.55 95.28,83.77 99.58,81.6 94.83,80.84 94.08,76.06 91.89,80.32 87.14,79.54 90.53,82.98 
	88.32,87.29 92.62,85.11 "/>
<polygon class="st0" points="160.24,193.85 94.39,20.89 14.79,95.35 52.53,193.85 43.81,193.85 4.96,92.46 97.73,5.68 
	169.37,193.85 "/>
</svg>
